<svg width="488" height="365" viewBox="0 0 488 365" fill="none" xmlns="http://www.w3.org/2000/svg">
<path d="M166.062 364.332C189.18 364.332 207.92 362.581 207.92 360.421C207.92 358.26 189.18 356.509 166.062 356.509C142.945 356.509 124.205 358.26 124.205 360.421C124.205 362.581 142.945 364.332 166.062 364.332Z" fill="#C8DBFB"/>
<path d="M381.091 364.332C404.208 364.332 422.949 362.581 422.949 360.421C422.949 358.26 404.208 356.509 381.091 356.509C357.973 356.509 339.233 358.26 339.233 360.421C339.233 362.581 357.973 364.332 381.091 364.332Z" fill="#C8DBFB"/>
<path d="M469.528 84.9471C469.409 84.2211 469.279 83.5059 469.138 82.8124" stroke="#C8DBFB" stroke-linecap="round" stroke-linejoin="round"/>
<path d="M468.109 78.6189C460.647 53.1759 436.832 55.6357 415.313 55.679C392.148 55.7223 33.5469 56.47 33.5469 56.47C-2.49511 56.5459 1.00296 108.602 29.215 108.537C45.4382 108.505 51.6113 138.986 23.5617 139.041C6.732 139.073 6.1905 160.42 17.5078 164.7" stroke="#C8DBFB" stroke-linecap="round" stroke-linejoin="round" stroke-dasharray="3.99 3.99"/>
<path d="M19.5872 165.253C20.2694 165.372 20.9951 165.437 21.7532 165.426" stroke="#C8DBFB" stroke-linecap="round" stroke-linejoin="round"/>
<path d="M26.1716 164.44C26.6482 167.268 24.7529 169.945 21.9263 170.432C19.0997 170.909 16.4247 169.013 15.9373 166.185C15.4608 163.357 17.3561 160.68 20.1827 160.192C23.0093 159.716 25.6951 161.623 26.1716 164.44Z" fill="#5193F4"/>
<path d="M474.629 87.2876C474.12 90.105 471.412 91.9796 468.597 91.4595C465.781 90.9502 463.907 88.2412 464.427 85.4238C464.936 82.6065 467.643 80.7318 470.459 81.252C473.275 81.7613 475.138 84.4594 474.629 87.2876Z" fill="#5193F4"/>
<path d="M79.0436 126.536C78.2964 130.751 77.2025 134.869 75.8705 138.932C73.0005 147.699 69.0368 156.14 65.0297 164.473C62.9395 168.829 54.4597 178.906 49.9111 180.824C50.4417 169.457 50.4851 156.183 49.1638 144.708C47.8967 133.655 51.8713 125.279 47.5393 115.028C46.987 113.717 46.413 112.406 45.839 111.095C43.6839 106.218 41.5504 101.32 40.8789 96.0649C40.0125 89.4008 42.081 81.8047 47.8426 78.3372C51.9904 75.8449 57.3946 75.975 61.824 77.9363C66.2535 79.8976 69.8057 83.4843 72.5023 87.5045C80.0508 98.7306 81.4154 113.229 79.0436 126.536Z" fill="#5193F4"/>
<path d="M58.9 89.7258C67.3799 101.71 68.1163 115.667 68.8527 130.328C69.5892 144.99 66.0695 159.846 58.8242 172.611" stroke="#0B43A4" stroke-miterlimit="10" stroke-linecap="round" stroke-linejoin="round"/>
<path d="M58.5425 310.759C52.5969 305.504 46.5863 300.172 42.1893 293.562C38.3663 287.809 35.8971 281.274 32.5615 275.217C30.4063 271.305 27.8505 267.524 26.605 263.232C25.3596 258.941 25.652 253.848 28.706 250.587C31.89 247.173 37.3592 246.653 41.6803 248.409C46.0014 250.164 49.3046 253.805 51.8171 257.728C55.1636 262.94 57.4054 268.867 58.3368 274.99C59.1815 280.538 58.9649 286.216 59.8313 291.764C60.6327 296.932 62.3763 301.895 64.564 306.631C66.5458 310.922 71.5818 318.583 72.8597 322.982C69.2967 324.749 61.0767 313.002 58.5425 310.759Z" fill="#00AD9F"/>
<path d="M37.7598 256.254C43.413 258.725 45.6548 265.475 46.8353 271.533C48.1782 278.425 47.8749 285.891 51.0373 292.165C56.9937 303.987 64.7372 317.434 70.4987 321.454" stroke="#00AD9F" stroke-miterlimit="10" stroke-linecap="round" stroke-linejoin="round"/>
<path d="M29.2908 294.592C24.3631 292.641 17.7677 291.84 14.6054 296.098C11.9629 299.663 13.3274 304.724 15.1577 308.765C16.7064 312.179 18.6666 315.657 21.9156 317.51C24.1357 318.778 26.7457 319.157 29.2908 319.461C36.3844 320.306 43.5213 320.718 50.6691 320.696C58.9432 320.674 68.9717 324.055 75.8271 329.224C67.0331 312.883 45.8931 301.148 29.2908 294.592Z" fill="#0056EC"/>
<path d="M20.6377 305.211C26.9191 305.482 33.2546 305.916 39.276 307.703C45.4383 309.524 69.145 320.414 72.8489 325.041" stroke="#0B43A4" stroke-miterlimit="10" stroke-linecap="round" stroke-linejoin="round"/>
<path d="M83.094 261.043C76.6719 250.988 65.6903 243.966 53.8749 242.373C45.1459 241.203 36.1679 242.828 27.5473 241.019C18.4934 239.122 10.3276 233.282 5.60579 225.317C0.883936 217.353 -0.350679 207.405 2.30266 198.53C4.32786 191.79 8.95224 185.397 15.6451 183.241C19.2948 182.071 23.2803 182.233 27.0058 183.122C30.4497 183.945 33.6445 185.386 36.5903 187.261C43.3265 191.53 48.7739 198.097 52.8677 205.075C56.5823 211.414 65.7445 221.286 71.9825 227.712C75.643 231.461 78.2964 234.029 78.2964 234.029C82.5634 239.361 80.5598 254.704 83.094 261.043Z" fill="#52D2BC"/>
<path d="M13.6848 202.735C34.6624 212.205 57.5353 224.624 72.4156 242.2" stroke="#00AD9F" stroke-miterlimit="10" stroke-linecap="round" stroke-linejoin="round"/>
<path opacity="0.2" d="M74.4302 239.837C74.4302 239.837 43.175 214.481 36.5796 187.272C43.3158 191.541 48.7633 198.108 52.857 205.086C56.5717 211.425 65.7338 221.297 71.9718 227.723C72.7083 231.125 73.5205 235.124 74.4302 239.837Z" fill="#5275A0"/>
<path opacity="0.2" d="M75.8706 138.932C73.0006 147.699 69.0369 156.14 65.0298 164.473C62.9396 168.829 54.4597 178.906 49.9112 180.824C50.4418 169.457 50.4852 156.183 49.1639 144.708C47.8968 133.655 51.8714 125.279 47.5394 115.028C46.9871 113.717 46.4131 112.406 45.8391 111.094C46.2398 111.225 46.6297 111.365 47.0087 111.528C54.1349 114.584 57.4272 122.126 58.0336 129.451C58.5426 135.497 57.4488 141.555 56.6366 147.569C56.2575 150.343 55.9543 153.182 56.5499 155.901C56.5608 155.934 56.5716 155.956 56.5716 155.988C57.3189 159.228 62.0515 159.044 62.658 155.761L64.5533 145.694C65.1164 142.681 65.7337 139.528 68.2029 137.426C69.1776 136.592 70.4339 136.072 71.7118 136.115C73.7479 136.191 75.0258 137.383 75.8706 138.932Z" fill="#5275A0"/>
<path d="M74.4302 233.487C69.4917 207.687 66.8925 203.71 69.0693 197.241C71.8418 188.995 70.2823 180.716 72.8923 172.416C75.5023 164.126 77.2784 155.208 75.1774 146.767C74.5168 144.101 73.1631 141.197 69.9574 141.078C68.6686 141.034 67.4232 141.555 66.4485 142.389C63.9793 144.491 63.3619 147.644 62.7988 150.657L60.9144 160.724C60.2971 163.996 55.5752 164.191 54.828 160.94C54.8171 160.908 54.8171 160.886 54.8063 160.854C54.1998 158.134 54.5139 155.295 54.8821 152.521C55.6943 146.496 56.7882 140.449 56.29 134.392C55.6835 127.067 52.3912 119.525 45.2543 116.48C42.7309 115.396 39.8718 115.158 37.2076 115.841C29.7675 117.748 27.8397 125.03 28.9336 131.239C29.7025 135.616 31.7493 139.637 33.6013 143.668C38.1282 153.518 34.8034 162.555 35.4315 173.38C37.1643 203.277 74.4302 233.487 74.4302 233.487Z" fill="#7EE8D4"/>
<path d="M41.2256 123.664C44.8969 142.021 48.6116 160.507 55.7377 177.823C57.8279 182.894 58.8459 189.58 70.9429 203.385" stroke="#00AD9F" stroke-miterlimit="10" stroke-linecap="round" stroke-linejoin="round"/>
<path d="M184.452 128.367C180.65 124.022 177.141 119.601 173.448 115.342C171.055 112.579 168.586 109.881 165.9 107.324C164.568 106.045 163.192 104.81 161.741 103.607C153.164 96.5201 143.59 90.6362 133.356 86.2584C127.183 83.6144 120.663 81.4364 115.421 77.2212C110.18 73.0168 106.411 66.1034 108.155 59.6126C109.422 54.9315 113.396 51.2906 117.956 49.6218C122.504 47.9639 127.551 48.0939 132.284 49.1125C145.496 51.9624 156.532 61.4656 164.037 72.7026C164.167 72.8976 164.308 73.1035 164.438 73.3094C169.939 81.7073 173.784 91.0479 177.131 100.562C178.203 103.618 179.221 106.695 180.228 109.762C181.744 114.345 186.401 123.827 184.452 128.367Z" fill="#5193F4"/>
<path d="M124.01 60.1544C138.424 62.9068 148.626 72.4533 159.315 82.5092C170.004 92.565 177.759 105.709 181.387 119.937" stroke="#0B43A4" stroke-miterlimit="10" stroke-linecap="round" stroke-linejoin="round"/>
<path opacity="0.2" d="M173.448 115.342C173.329 116.838 173.373 118.333 173.654 119.85C170.048 119.027 167.546 113.424 165.9 107.324C164.286 101.396 163.485 94.9814 163.236 92.0231C162.748 85.7816 163.149 79.4534 164.438 73.3093C169.939 81.7072 173.784 91.0479 177.131 100.562C175.983 103.975 174.997 107.432 174.185 110.921C173.838 112.406 173.567 113.869 173.448 115.342Z" fill="#5275A0"/>
<path d="M198.455 63.2752C197.231 68.6824 193.971 73.3527 191.09 78.0989C189.574 80.5912 188.156 83.1593 186.834 85.76C182.6 94.082 179.372 102.913 177.239 112.005C176.535 114.985 176.145 117.91 176.708 120.934C169.604 119.308 166.766 99.0991 166.29 93.0959C165.434 82.2816 167.275 71.1963 171.726 61.2922C173.665 56.947 176.178 52.6776 180.044 49.8927C183.899 47.1078 189.358 46.1326 193.441 48.5599C195.899 50.0227 197.48 52.45 198.249 55.2132C199.007 57.7922 199.04 60.6637 198.455 63.2752Z" fill="#52D2BC"/>
<path d="M174.001 114.974C169.582 103.867 172.268 80.3636 179.351 65.5941C181.484 61.1405 184.527 56.9686 188.784 54.4872" stroke="#00AD9F" stroke-miterlimit="10" stroke-linecap="round" stroke-linejoin="round"/>
<path opacity="0.2" d="M198.455 63.2759C197.231 68.6831 193.971 73.3534 191.09 78.0996C189.574 80.5919 188.155 83.16 186.834 85.7606C184.895 82.4882 183.563 78.8798 183.195 75.1088C182.6 68.8131 185.004 62.0731 190.116 58.3671C192.509 56.6442 195.314 55.6581 198.249 55.2139C199.007 57.7928 199.039 60.6644 198.455 63.2759Z" fill="#5275A0"/>
<path d="M239.446 110.314C239.11 112.384 238.493 114.378 237.605 116.296C234.453 123.123 227.836 128.974 217.927 133.742C217.927 133.742 217.375 122.949 217.255 120.056C216.768 107.681 203.35 100.844 194.859 91.8172C190.538 87.2119 187.257 81.4038 186.65 75.1081C186.054 68.8124 188.459 62.0723 193.57 58.3664C197.859 55.2673 203.469 54.5955 208.754 54.9964C217.266 55.6791 225.854 59.2441 231.15 65.8975C231.378 66.1467 231.573 66.4176 231.768 66.6777C235.006 71.1096 236.674 76.5059 237.897 81.8806C240.02 91.1888 240.973 100.876 239.446 110.314Z" fill="#00AD9F"/>
<path d="M197.231 64.998C206.523 69.8092 215.826 75.6174 221.23 84.5679C228.778 97.0618 227.132 113.316 221.317 126.698" stroke="#00AD9F" stroke-miterlimit="10" stroke-linecap="round" stroke-linejoin="round"/>
<path d="M394.856 190.122C400.78 180.369 397.747 167.821 399.816 156.606C401.397 147.98 406.195 139.983 413.061 134.522C417.371 131.098 423.425 128.649 428.288 131.217C429.338 131.77 430.594 132.561 431.612 131.932C432.219 131.564 432.457 130.805 432.609 130.112C433.843 124.054 430.93 117.434 433.313 111.723C434.591 108.646 437.244 106.348 440.049 104.56C445.464 101.104 451.799 99.1208 458.211 98.8607C459.911 98.7957 461.687 98.8607 463.214 99.6193C465.965 100.995 467.221 104.43 466.853 107.486C466.485 110.542 464.795 113.283 462.933 115.732C456.716 123.87 447.608 130.892 446.406 141.056C446.255 142.335 446.255 143.7 446.839 144.849C447.413 145.965 448.475 146.756 449.07 147.85C450.987 151.372 447.283 155.371 443.677 157.094C440.374 158.676 436.8 159.662 433.15 160.008C430.638 160.247 427.811 160.301 426.1 162.154C422.949 165.578 426.566 171.05 425.905 175.656C425.494 178.527 423.414 180.846 421.313 182.862C417.425 186.6 413.18 189.948 408.642 192.863C404.96 195.226 401.072 197.306 397.812 200.21C394.552 203.114 391.921 207.048 391.704 211.415" fill="#52D2BC"/>
<path d="M402.653 180.629C403.617 175.905 405.816 171.527 407.992 167.225C411.393 160.496 414.859 153.669 419.992 148.154C423.891 143.96 428.645 140.644 432.609 136.516C435.436 133.568 437.84 130.231 439.735 126.612C440.764 124.65 441.652 122.592 443.027 120.869C444.673 118.821 446.915 117.358 448.875 115.602C451.518 113.24 453.641 110.304 455.07 107.053" stroke="#00AD9F" stroke-miterlimit="10" stroke-linecap="round" stroke-linejoin="round"/>
<path d="M479.881 196.883C478.549 202.02 476.567 207.102 473.167 211.176C470.817 213.983 467.893 216.204 464.698 218.014C463.052 218.956 461.319 219.78 459.575 220.517C452.796 223.367 445.507 224.981 438.165 225.263C427.465 225.664 416.461 223.302 406.195 226.357C401.483 227.755 397.141 230.302 393.578 233.672C391.347 235.763 389.43 238.18 387.914 240.834L389.311 231.949C391.899 222.391 394.541 212.661 399.827 204.284C403.238 198.856 407.667 194.131 412.378 189.786C419.905 182.829 428.255 176.707 437.471 172.231C444.922 168.612 453.196 166.066 461.427 167.074C469.647 168.07 477.726 173.272 480.293 181.15C481.939 186.21 481.224 191.736 479.881 196.883Z" fill="#5193F4"/>
<path d="M396.307 225.187C404.169 213.549 415.941 204.599 429.262 200.156C437.558 197.382 446.341 196.331 454.745 193.904C463.149 191.476 471.542 187.359 476.47 180.12" stroke="#0B43A4" stroke-miterlimit="10" stroke-linecap="round" stroke-linejoin="round"/>
<path d="M401.484 310.542C401.949 298.59 408.122 287.559 415.628 278.24C421.876 270.471 429.425 263.362 438.749 259.819C441.674 258.714 444.879 257.966 447.912 258.714C450.944 259.461 453.695 262.051 453.749 265.183C453.792 267.816 452.027 270.124 450.164 271.988C444.035 278.132 436.118 282.065 428.688 286.551C415.931 294.267 403.801 304.561 398.744 318.594" fill="#52D2BC"/>
<path d="M406.206 300.086C414.003 282.683 434.19 267.122 447.5 265.183" stroke="#00AD9F" stroke-miterlimit="10" stroke-linecap="round" stroke-linejoin="round"/>
<path d="M396.61 320.046C396.502 318.041 403.032 312.807 404.505 311.474C412.66 304.073 422.342 298.634 432.576 295.426C436.714 294.126 441.121 293.183 445.258 294.18C449.406 295.177 453.208 298.58 453.608 303.044C453.998 307.378 451.096 311.626 447.381 313.717C443.666 315.82 439.334 316.134 435.197 315.895C428.808 315.527 422.526 313.934 416.115 313.977C409.693 314.032 400.682 314.682 396.61 320.046Z" fill="#00AD9F"/>
<path d="M403.26 313.967C416.375 306.858 436.204 302.231 450.608 303.976" stroke="#00AD9F" stroke-miterlimit="10" stroke-linecap="round" stroke-linejoin="round"/>
<path opacity="0.2" d="M239.446 110.314C239.11 112.384 238.493 114.378 237.605 116.296C233.002 106.533 228.952 93.7894 227.977 78.1422C227.717 73.9053 228.898 69.5492 231.15 65.8975C231.378 66.1467 231.573 66.4176 231.768 66.6777C235.006 71.1096 236.674 76.5059 237.897 81.8806C240.02 91.1888 240.973 100.876 239.446 110.314Z" fill="#5275A0"/>
<path d="M284.813 109.762C294.603 106.283 304.783 103.509 313.685 98.1346C316.382 96.5092 318.97 94.6238 320.887 92.1315C322.793 89.6392 323.974 86.4534 323.551 83.3326C323.118 80.1685 321.093 77.1344 321.775 74.0028C322.23 71.9439 323.768 70.3402 324.948 68.5848C327.753 64.4346 328.587 59.0057 327.169 54.1945C325.631 49.0366 321.764 44.8972 319.566 39.9885C317.768 35.9683 317.129 31.4497 317.736 27.0936C309.516 27.202 302.021 31.6989 293.942 33.1943C287.758 34.3429 281.336 33.7144 275.206 35.1231C264.041 37.6913 254.9 47.5304 253.168 58.8649C247.991 57.9763 242.413 59.8401 238.807 63.6761C234.984 67.7504 232.829 73.5477 233.175 79.1282C235.699 119.687 258.907 140.839 258.907 140.839C258.907 140.839 281.076 111.095 284.813 109.762Z" fill="#7EE8D4"/>
<path d="M262.904 109.48C261.886 99.4783 265.384 89.585 269.391 80.3636C273.3 71.3805 277.806 62.5708 283.849 54.8556C289.892 47.1403 297.57 40.5303 306.635 36.8027" stroke="#00AD9F" stroke-miterlimit="10" stroke-linecap="round" stroke-linejoin="round"/>
<path d="M271.622 42.9468C270.593 51.8648 271.318 62.6142 273.636 71.283" stroke="#00AD9F" stroke-miterlimit="10" stroke-linecap="round" stroke-linejoin="round"/>
<path d="M275.304 68.0863C285.484 61.5522 301.144 57.5862 313.22 58.2797" stroke="#00AD9F" stroke-miterlimit="10" stroke-linecap="round" stroke-linejoin="round"/>
<path d="M250.406 69.7551C262.666 74.9239 263.164 92.9551 263.499 98.0805" stroke="#00AD9F" stroke-miterlimit="10" stroke-linecap="round" stroke-linejoin="round"/>
<path d="M266.835 86.616C276.214 79.8868 289.762 77.8605 299.736 80.3744" stroke="#00AD9F" stroke-miterlimit="10" stroke-linecap="round" stroke-linejoin="round"/>
<path d="M292.426 38.309C289.61 41.7873 288.906 45.9267 289.188 48.7982" stroke="#00AD9F" stroke-miterlimit="10" stroke-linecap="round" stroke-linejoin="round"/>
<path d="M291.852 46.2518C296.173 44.0412 301.957 43.532 308.141 45.0815" stroke="#00AD9F" stroke-miterlimit="10" stroke-linecap="round" stroke-linejoin="round"/>
<path d="M50.7125 65.8757C51.8605 65.8107 59.723 59.9918 62.7446 58.0305C63.6001 57.4778 64.4557 56.9035 65.0513 56.08C65.647 55.2564 65.9286 54.1295 65.4954 53.2084C64.9539 52.0707 64.0658 50.9329 61.824 50.9329C57.9144 50.9437 56.5498 52.2332 54.6438 54.1945C48.3516 60.707 50.7125 65.8757 50.7125 65.8757Z" fill="#4A49CA"/>
<path d="M85.9422 89.3574C89.3645 90.8961 93.0142 92.424 96.7397 91.9472C98.1801 91.763 99.7612 91.102 100.238 89.7367C100.649 88.5664 100.086 87.2119 99.1548 86.3883C98.2234 85.5648 96.9996 85.1639 95.7866 84.8713C91.2381 83.7552 84.8376 84.3728 80.3323 85.6515C80.3215 85.6515 83.8954 88.4364 85.9422 89.3574Z" fill="#4A49CA"/>
<path d="M108.469 38.7966C106.942 37.8322 105.252 36.5427 105.263 34.7331C105.263 32.9235 107.147 31.5473 108.956 31.5365C110.765 31.5256 112.443 32.5117 113.808 33.7145C119.559 38.7749 118.844 44.5397 118.844 44.5397C118.844 44.5397 110.169 39.8694 108.469 38.7966Z" fill="#4A49CA"/>
<path d="M113.006 23.3769C111.663 22.8026 110.288 22.1091 109.497 20.8738C109.118 20.2778 108.902 19.5193 109.129 18.8474C109.519 17.7313 110.223 16.7236 113.05 17.2329C121.984 18.8583 123.934 24.9806 123.934 24.9806C123.934 24.9806 115.378 24.3955 113.006 23.3769Z" fill="#4A49CA"/>
<path d="M139.182 36.9219C142.767 36.6077 146.471 34.8306 148.724 32.024C149.579 30.9621 150.359 29.8027 150.64 28.4698C150.922 27.137 150.619 25.6199 149.59 24.7314C148.334 23.6478 146.341 23.8212 144.966 24.7314C143.579 25.6416 142.691 27.137 141.976 28.6215C141.023 30.6154 139.182 36.9219 139.182 36.9219Z" fill="#4A49CA"/>
<path d="M75.1882 167.669C66.5134 160.019 57.8278 152.358 49.153 144.708C44.5286 140.633 39.8068 136.429 36.8827 131C30.5905 119.33 34.2185 104.17 42.72 93.9952C51.2215 83.8202 63.676 77.817 76.1954 73.4501C88.704 69.0832 101.732 66.0166 113.656 60.2302C121.14 56.6001 128.656 51.2038 130.713 43.1417C131.948 38.298 130.908 32.9125 127.963 28.8815C125.017 24.8397 120.208 22.2174 115.216 21.9248" stroke="#0B43A4" stroke-miterlimit="10" stroke-linecap="round" stroke-linejoin="round"/>
<path d="M145.247 28.5999C142.875 35.8817 133.637 40.3136 129.425 46.631" stroke="#0B43A4" stroke-miterlimit="10" stroke-linecap="round" stroke-linejoin="round"/>
<path d="M112.086 36.9761C113.905 38.8941 116.082 40.487 117.674 42.6C121.031 47.0753 121.302 54.3462 116.342 58.854" stroke="#0B43A4" stroke-miterlimit="10" stroke-linecap="round" stroke-linejoin="round"/>
<path d="M65.3545 77.7629C73.0113 83.6686 83.0723 87.602 92.7326 87.9705" stroke="#0B43A4" stroke-miterlimit="10" stroke-linecap="round" stroke-linejoin="round"/>
<path d="M47.8316 88.5122C44.3011 78.1096 48.1457 65.6482 56.918 59.0491" stroke="#0B43A4" stroke-miterlimit="10" stroke-linecap="round" stroke-linejoin="round"/>
<path d="M327.688 44.5614C327.277 43.2719 327.298 41.6899 328.241 40.7255C328.999 39.967 330.255 39.6202 331.241 40.0537C338.854 43.402 338.031 55.2891 338.031 55.2891C338.031 55.2891 330.818 54.2488 327.688 44.5614Z" fill="#4A49CA"/>
<path d="M327.504 66.8294C322.577 75.7366 340.078 75.054 346.392 69.8093C346.392 69.8093 331.75 59.1575 327.504 66.8294Z" fill="#4A49CA"/>
<path d="M349.64 45.2441C348.449 43.6186 348.027 41.1914 349.326 39.6418C350.29 38.4932 351.969 38.1356 353.442 38.4174C354.915 38.6991 357.124 40.0644 358.066 41.2347C363.828 48.4082 361.12 55.4191 361.12 55.4191C361.12 55.4191 351.579 47.9097 349.64 45.2441Z" fill="#4A49CA"/>
<path d="M419.147 67.2954C418.725 65.9084 418.822 64.218 419.894 63.2427C420.577 62.6251 421.54 62.4083 422.45 62.4734C423.36 62.5384 424.237 62.8743 425.071 63.2536C426.858 64.0663 428.244 65.4966 429.1 67.2629C431.266 71.7273 429.793 77.2429 429.793 77.2429C429.793 77.2429 420.208 70.7521 419.147 67.2954Z" fill="#4A49CA"/>
<path d="M397.282 83.6361C394.184 80.9163 389.452 80.1144 385.672 81.7723C384.708 82.1949 383.798 82.7909 383.192 83.6361C381.806 85.5541 382.293 88.3498 383.733 90.2244C385.163 92.099 387.34 93.2368 389.495 94.2121C393.394 95.9783 399.437 96.3359 403.585 97.3979C403.574 97.387 403.563 89.1516 397.282 83.6361Z" fill="#4A49CA"/>
<path d="M333.147 46.4794C335.724 54.9098 343.013 61.2814 351.124 64.7164C359.236 68.1623 368.171 69.0725 376.975 69.636C385.769 70.2103 394.672 70.492 403.173 72.8001C411.458 75.054 419.721 79.7351 423.273 87.5587C427.605 97.0836 423.772 108.461 417.685 116.979C411.61 125.485 403.422 132.344 397.542 140.991C394.845 144.957 392.581 149.617 393.134 154.385C393.859 160.745 399.22 165.426 404.191 169.457" stroke="#0B43A4" stroke-miterlimit="10" stroke-linecap="round" stroke-linejoin="round"/>
<path d="M353.42 43.3802C359.247 49.8277 363.904 59.916 365.041 68.5415" stroke="#0B43A4" stroke-miterlimit="10" stroke-linecap="round" stroke-linejoin="round"/>
<path d="M333.818 68.3031C337.154 69.1917 340.533 70.0803 343.977 70.0911C347.421 70.1019 351.417 68.184 353.897 65.7892" stroke="#0B43A4" stroke-miterlimit="10" stroke-linecap="round" stroke-linejoin="round"/>
<path d="M424.854 67.8156C427.974 70.828 429.88 75.0865 430.042 79.4209C430.204 83.7662 427.8 89.0217 424.909 92.2616" stroke="#0B43A4" stroke-miterlimit="10" stroke-linecap="round" stroke-linejoin="round"/>
<path d="M392.181 87.5154C398.419 93.2585 403.845 97.9071 410.776 102.783C413.938 105.016 420.219 107.865 423.014 107.129" stroke="#0B43A4" stroke-miterlimit="10" stroke-linecap="round" stroke-linejoin="round"/>
<path opacity="0.2" d="M464.697 218.014C463.051 218.956 461.318 219.78 459.575 220.517C452.795 223.367 445.507 224.981 438.164 225.263C427.464 225.664 416.461 223.302 406.194 226.357C401.483 227.755 397.14 230.302 393.577 233.672C393.22 233.845 392.862 234.04 392.505 234.246C391.649 226.997 409.714 217.548 415.205 215.088C425.114 210.645 436.16 208.673 446.99 209.54C451.734 209.919 456.597 210.851 460.506 213.549C462.185 214.709 463.658 216.258 464.697 218.014Z" fill="#5275A0"/>
<path d="M446.98 213.874C451.724 214.254 456.586 215.185 460.496 217.884C464.406 220.582 467.167 225.404 466.257 230.074C465.196 235.514 459.575 239.057 454.074 239.718C448.572 240.39 443.081 238.873 437.656 237.757C425.645 235.286 413.256 234.712 401.072 236.088C398.029 236.424 395.148 237.031 392.495 238.591C391.639 231.342 409.714 221.893 415.205 219.433C425.115 214.98 436.161 213.007 446.98 213.874Z" fill="#52D2BC"/>
<path d="M397.195 234.018C406.162 226.13 429.197 220.777 445.486 222.5C450.391 223.02 455.341 224.483 459.11 227.669" stroke="#00AD9F" stroke-miterlimit="10" stroke-linecap="round" stroke-linejoin="round"/>
<path d="M380.441 145.38L468.044 145.195C478.322 145.174 486.672 153.496 486.693 163.779C486.715 174.063 478.398 182.417 468.12 182.439L408.198 182.558" stroke="#0B43A4" stroke-miterlimit="10" stroke-linecap="round" stroke-linejoin="round" stroke-dasharray="4 4"/>
<path d="M115.389 209.735L54.124 209.865C48.3192 209.876 43.6298 214.589 43.6406 220.398C43.6515 226.206 48.3625 230.898 54.1674 230.887L72.0259 230.854" stroke="#0B43A4" stroke-miterlimit="10" stroke-linecap="round" stroke-linejoin="round" stroke-dasharray="4 4"/>
<path d="M17.6054 257.197C-3.38305 257.24 -3.81625 288.567 22.8796 288.502C49.5862 288.448 399.902 287.722 416.418 287.689C432.934 287.657 434.677 261.867 414.263 261.91C373.618 261.997 372.275 242.601 394.834 242.557" stroke="#C8DBFB" stroke-miterlimit="10" stroke-linecap="round" stroke-linejoin="round" stroke-dasharray="4 4"/>
<path d="M22.5112 256.33C22.9878 259.158 21.0925 261.834 18.2659 262.322C15.4393 262.799 12.7643 260.903 12.2769 258.074C11.8004 255.246 13.6957 252.57 16.5223 252.082C19.3489 251.605 22.0347 253.502 22.5112 256.33Z" fill="#5193F4"/>
<path d="M404.906 242.698C405.382 245.526 403.487 248.203 400.66 248.69C397.834 249.167 395.159 247.271 394.671 244.443C394.195 241.614 396.09 238.938 398.917 238.45C401.743 237.974 404.418 239.881 404.906 242.698Z" fill="#0B43A4"/>
<path opacity="0.2" d="M410.548 333.266L84.6862 333.937C80.3434 333.948 76.802 330.427 76.802 326.081L76.3579 110.087C76.3471 105.741 79.8668 102.198 84.2096 102.198L410.072 101.526C414.415 101.515 417.956 105.037 417.956 109.382L418.4 325.377C418.411 329.722 414.902 333.255 410.548 333.266Z" fill="#5275A0"/>
<path d="M404.169 329.136L78.3073 329.808C73.9645 329.819 70.4231 326.297 70.4231 321.952L69.979 105.957C69.9682 101.612 73.4879 98.0688 77.8307 98.0688L403.693 97.397C408.036 97.3862 411.577 100.908 411.577 105.253L412.021 321.248C412.032 325.593 408.512 329.125 404.169 329.136Z" fill="white"/>
<path d="M403.163 97.387L78.6977 98.0588C73.9651 98.0697 70.1421 101.916 70.1421 106.652L70.1529 114.107L411.762 113.403L411.751 105.947C411.74 101.212 407.896 97.3761 403.163 97.387Z" fill="#0056EC"/>
<path d="M79.0869 329.809L128.114 329.711L127.67 113.988L70.0764 114.107L70.4988 321.27C70.5096 325.995 74.3542 329.82 79.0869 329.809Z" fill="#C8DBFB"/>
<path d="M403.791 99.5542C406.932 99.5542 409.487 102.111 409.498 105.254L409.942 321.248C409.942 322.776 409.357 324.207 408.274 325.29C407.202 326.374 405.773 326.97 404.246 326.97L78.3726 327.642C75.2319 327.642 72.6761 325.084 72.6652 321.942L72.2212 105.947C72.2212 104.42 72.806 102.989 73.889 101.906C74.9612 100.822 76.3907 100.226 77.9177 100.226L403.769 99.5542H403.791ZM403.791 97.387C403.791 97.387 403.78 97.387 403.769 97.387L77.9069 98.0588C73.5641 98.0696 70.0444 101.602 70.0552 105.947L70.4992 321.942C70.5101 326.287 74.0298 329.798 78.3726 329.798C78.3726 329.798 78.3834 329.798 78.3943 329.798L404.257 329.126C408.599 329.115 412.119 325.583 412.108 321.238L411.664 105.243C411.653 100.898 408.134 97.387 403.791 97.387Z" fill="#0056EC"/>
<path d="M119.84 313.317L82.0545 313.392C80.3867 313.392 79.033 312.049 79.033 310.38V310.001C79.033 308.332 80.3759 306.977 82.0437 306.977L119.829 306.902C121.497 306.902 122.851 308.245 122.851 309.914V310.293C122.862 311.962 121.508 313.317 119.84 313.317Z" fill="white"/>
<path d="M115.302 166.965L83.1373 167.03C80.0832 167.041 77.6032 164.56 77.5924 161.504L77.5274 129.321C77.5165 126.265 79.9966 123.784 83.0506 123.773L115.216 123.708C118.27 123.697 120.75 126.178 120.761 129.234L120.825 161.417C120.825 164.484 118.356 166.965 115.302 166.965Z" fill="white"/>
<path d="M253.005 263.373L140.937 263.601C138.76 263.601 136.995 261.845 136.984 259.667V259.18C136.984 257.002 138.738 255.235 140.915 255.225L252.983 254.997C255.16 254.997 256.926 256.753 256.936 258.931V259.418C256.936 261.607 255.182 263.373 253.005 263.373Z" fill="#C8DBFB"/>
<path d="M246.529 135.616L157.972 135.801C155.795 135.801 154.03 134.045 154.019 131.867V131.38C154.019 129.202 155.774 127.435 157.951 127.424L246.507 127.24C248.684 127.24 250.449 128.996 250.46 131.174V131.661C250.46 133.85 248.705 135.616 246.529 135.616Z" fill="#C8DBFB"/>
<path d="M386.527 225.241L268.449 225.491C266.272 225.491 264.506 223.735 264.496 221.557V221.069C264.496 218.891 266.25 217.125 268.427 217.114L386.506 216.876C388.683 216.876 390.448 218.631 390.459 220.809V221.297C390.459 223.464 388.704 225.23 386.527 225.241Z" fill="#C8DBFB"/>
<path d="M253.038 280.7L140.969 280.928C138.792 280.928 137.027 279.172 137.016 276.994V276.507C137.016 274.329 138.771 272.562 140.948 272.551L253.016 272.324C255.193 272.324 256.958 274.079 256.969 276.257V276.745C256.98 278.923 255.214 280.689 253.038 280.7Z" fill="#C8DBFB"/>
<path d="M253.07 298.016L141.002 298.244C138.825 298.244 137.06 296.488 137.049 294.31V293.822C137.049 291.644 138.803 289.878 140.98 289.867L253.048 289.64C255.225 289.64 256.99 291.395 257.001 293.573V294.061C257.012 296.239 255.247 298.016 253.07 298.016Z" fill="#C8DBFB"/>
<path d="M384.123 309.307L271.178 309.546C267.582 309.556 264.658 306.642 264.658 303.044L264.561 254.509C264.55 250.912 267.463 247.986 271.059 247.986L384.004 247.748C387.6 247.737 390.524 250.652 390.524 254.249L390.621 302.784C390.632 306.381 387.719 309.307 384.123 309.307Z" fill="#C8DBFB"/>
<path d="M88.8772 105.904C88.8772 107.432 87.6426 108.667 86.1264 108.667C84.6102 108.667 83.3647 107.432 83.3647 105.915C83.3647 104.387 84.5994 103.152 86.1156 103.152C87.6317 103.152 88.8772 104.387 88.8772 105.904Z" fill="#C8DBFB"/>
<path d="M97.8119 108.657C99.3371 108.657 100.574 107.419 100.574 105.893C100.574 104.367 99.3371 103.13 97.8119 103.13C96.2867 103.13 95.0503 104.367 95.0503 105.893C95.0503 107.419 96.2867 108.657 97.8119 108.657Z" fill="#C8DBFB"/>
<path d="M112.259 105.861C112.259 107.389 111.024 108.624 109.508 108.624C107.992 108.624 106.747 107.389 106.747 105.872C106.747 104.344 107.981 103.108 109.497 103.108C111.014 103.098 112.248 104.333 112.259 105.861Z" fill="#C8DBFB"/>
<path d="M149.685 132.457C150.125 128.069 146.925 124.155 142.539 123.715C138.153 123.275 134.241 126.476 133.802 130.865C133.362 135.253 136.562 139.168 140.948 139.607C145.334 140.047 149.246 136.846 149.685 132.457Z" fill="#C8DBFB"/>
<path d="M117.544 173.716L82.1845 173.792C81.3614 173.792 80.7008 173.131 80.6899 172.307V172.123C80.6899 171.3 81.3506 170.639 82.1736 170.628L117.533 170.552C118.357 170.552 119.017 171.213 119.028 172.036V172.221C119.028 173.044 118.367 173.716 117.544 173.716Z" fill="white"/>
<path d="M117.555 180.478L82.1952 180.553C81.3721 180.553 80.7115 179.892 80.7007 179.069V178.885C80.7007 178.061 81.3613 177.4 82.1844 177.389L117.544 177.313C118.367 177.313 119.028 177.974 119.039 178.798V178.982C119.039 179.806 118.378 180.467 117.555 180.478Z" fill="white"/>
<path d="M158.037 194.76L148.041 194.857L148.117 236.771L139.486 236.792C136.442 236.803 133.973 234.333 133.962 231.288L133.8 153.778C133.789 150.7 136.28 148.197 139.356 148.197L157.929 148.154L158.037 194.76Z" fill="#C8DBFB"/>
<path d="M222.898 148.024V149.107C225.887 149.107 228.324 151.535 228.324 154.525L228.475 230.096C228.475 231.548 227.912 232.913 226.894 233.943C225.876 234.972 224.511 235.535 223.06 235.546L140.46 235.72C137.471 235.72 135.034 233.292 135.034 230.302L134.883 154.731C134.883 153.279 135.446 151.914 136.464 150.884C137.482 149.855 138.847 149.292 140.298 149.281L222.887 149.107L222.898 148.024ZM222.898 148.024H222.887L140.298 148.197C136.702 148.208 133.789 151.123 133.8 154.72L133.951 230.291C133.962 233.888 136.876 236.792 140.46 236.792H140.471L223.06 236.619C226.656 236.608 229.569 233.693 229.558 230.096L229.407 154.525C229.407 150.928 226.493 148.013 222.898 148.024Z" fill="#C8DBFB"/>
<path d="M360.806 210.212L250.644 185.3C247.135 184.509 244.937 181.019 245.727 177.509L258.117 122.646C258.907 119.135 262.395 116.935 265.904 117.726L376.066 142.638C379.575 143.429 381.773 146.918 380.983 150.429L368.593 205.292C367.802 208.803 364.315 211.014 360.806 210.212Z" fill="#C8DBFB"/>
<path d="M147.608 359.424L132.197 359.456L128.417 339.811L151.301 339.767L147.608 359.424Z" fill="#0056EC"/>
<path d="M132.685 339.8C132.685 341.403 132.381 344.091 133.454 344.134C134.526 344.177 134.082 341.577 135.295 341.653C136.074 341.696 134.937 350.191 137.872 350.397C139.887 350.538 139.518 346.236 139.724 343.538C139.865 341.718 142.193 342.075 142.215 343.278C142.237 344.633 142.15 345.532 142.215 347.071C142.323 349.639 146.265 348.956 146.125 345.532C145.984 342.108 146.114 339.789 146.114 339.789L132.685 339.8Z" fill="#C8DBFB"/>
<path d="M129.002 351.665C128.688 351.665 128.385 351.633 128.093 351.568C126.955 351.319 126.165 350.723 125.721 349.791C124.15 346.453 128.288 340.212 128.45 339.93L128.667 341.057C128.634 341.122 125.028 346.486 126.446 349.487C126.782 350.203 127.378 350.647 128.277 350.842C128.526 350.896 128.786 350.918 129.046 350.918C134.601 350.907 144.088 340.559 144.197 340.439C144.587 339.973 145.312 340.418 145.052 340.808C144.608 341.306 134.97 351.655 129.002 351.665Z" fill="#0C2340"/>
<path opacity="0.2" d="M290.975 82.9643C269.066 82.1299 238.904 98.3406 249.604 137.979C249.377 141.327 251.381 143.722 253.514 143.072C255.648 142.422 253.763 136.061 253.763 136.061C257.413 106.587 264.236 101.494 275.813 101.602L302.985 101.548C309.7 102.534 321.905 107.237 323.735 130.827L330.504 132.073C331.035 115.028 326.919 84.3404 290.975 82.9643Z" fill="#5275A0"/>
<path d="M290.975 79.5076C269.066 78.6732 238.904 94.8839 249.604 134.522L253.763 132.604C257.413 103.13 264.236 98.0372 275.813 98.1456L302.985 98.0914C309.7 99.0775 322.23 105.048 324.06 128.638L330.493 128.627C331.035 111.571 326.919 80.8838 290.975 79.5076Z" fill="#EF832B"/>
<path d="M286.491 80.1577L283.242 87.3095C283.242 87.3095 283.632 91.3405 287.585 91.2538C291.538 91.1671 292.069 89.3467 292.069 89.3467L292.588 81.133L286.491 80.1577Z" fill="#FFB9A3"/>
<path d="M303.223 74.1871C299.52 80.7429 297.873 82.7909 293.022 83.777C286.74 85.0556 279.701 80.8187 282.971 70.3728C285.636 61.8557 289.686 63.1668 293.639 63.4919C297.592 63.8062 307.231 67.1003 303.223 74.1871Z" fill="#FFB9A3"/>
<path d="M288.473 69.0074C287.488 68.4981 286.22 68.9316 285.452 69.7334C284.661 70.5678 284.282 71.8031 284.618 72.8975C283.101 72.9192 281.769 74.4038 281.91 75.9208C280.87 73.5044 281.434 70.9796 281.228 68.4981C281.022 66.0167 281.293 63.3293 282.896 61.433C283.556 60.6528 284.401 60.0569 285.3 59.5801C288.711 57.7596 293.011 57.7054 296.476 59.4175C297.191 59.7751 298.989 60.9021 301.501 60.2953C306.288 59.1358 309.082 62.3758 306.212 65.4099C307.133 65.7458 308.151 66.1575 308.563 67.0461C308.671 67.2736 308.725 67.5554 308.584 67.7613C308.487 67.9021 308.314 67.978 308.14 68.0322C307.339 68.3031 306.462 68.3681 305.617 68.2272C305.942 68.4981 307.718 68.6065 308.249 69.6467C309.678 72.3991 304.025 71.0121 303.158 70.7303C304.144 70.9146 306.722 72.9734 305.898 74.3929C305.736 74.6747 302.249 76.701 298.588 72.4424C297.733 71.4564 296.671 70.5353 295.415 70.1994C294.43 69.9393 293.39 70.2969 292.426 70.6653C291.722 70.9254 289.935 72.0198 289.426 71.3697C288.895 70.6762 289.621 69.5817 288.473 69.0074Z" fill="#0C2340"/>
<path d="M324.764 128.627C323.79 131.976 322.815 132.301 323.984 132.832C325.165 133.363 326.118 131.488 326.118 131.488L331.555 132.572C331.555 132.572 330.331 129.039 329.475 128.616C328.62 128.194 324.764 128.627 324.764 128.627Z" fill="#FFB9A3"/>
<path d="M253.763 132.604C254.478 134.37 254.673 134.381 255.658 136.505C257.554 140.558 253.124 146.962 250.373 139.973C249.615 138.055 249.604 134.533 249.604 134.533L253.763 132.604Z" fill="#FFB9A3"/>
<path d="M296.217 59.9918C299.931 60.1976 304.502 57.5753 307.415 60.9345C307.686 61.2487 308.227 60.837 307.989 60.4902C305.206 56.4917 300.04 59.4716 296.228 59.3633C295.816 59.3633 295.827 59.9701 296.217 59.9918Z" fill="#0C2340"/>
<path d="M297.711 57.9438C295.177 58.3881 292.73 57.1853 290.184 57.5862C288.116 57.9113 286.275 58.9732 284.715 60.3277C284.315 60.6745 284.834 61.3572 285.289 61.0646C287.477 59.6234 289.578 58.3773 292.307 58.5831C294.289 58.724 295.968 59.32 297.939 58.724C298.437 58.5723 298.22 57.8571 297.711 57.9438Z" fill="#0C2340"/>
<path d="M283.264 61.4114C281.477 62.5275 280.448 64.012 280.232 66.1467C280.08 67.6854 280.037 71.2071 281.585 72.074C281.954 72.2799 282.343 71.7923 282.04 71.478C281.044 70.4703 280.957 67.7505 281.033 66.4718C281.141 64.5105 281.964 63.0151 283.524 61.8448C283.773 61.6606 283.546 61.238 283.264 61.4114Z" fill="#0C2340"/>
<path d="M310.74 67.512C309.819 65.9191 307.469 64.5104 305.66 65.5182C305.379 65.6807 305.509 66.1142 305.823 66.1142C306.613 66.125 307.339 66.0275 308.108 66.2659C308.985 66.5368 309.722 67.0461 310.241 67.7937C310.458 68.0972 310.924 67.8371 310.74 67.512Z" fill="#0C2340"/>
<path d="M190.224 232.816C201.714 237.042 211.689 250.218 209.393 259.808C206.805 270.633 199.343 275.304 199.343 275.304L196.993 270.958C196.993 270.958 202.96 261.629 202.44 257.218C201.606 250.164 192.704 245.44 192.704 245.44L190.224 232.816Z" fill="#0B43A4"/>
<path d="M161.947 354.959C161.947 354.959 154.897 357.809 153.131 359.424L167.102 359.391L167.091 354.948L161.947 354.959Z" fill="#0C2340"/>
<path d="M192.823 354.688C192.823 354.688 194.827 357.007 195.195 359.337L185.665 359.359C185.827 357.755 186.509 356.206 187.441 354.699L192.823 354.688Z" fill="#0C2340"/>
<path d="M193.408 354.894L186.899 354.905C187.029 347.233 185.448 321.086 183.921 301.538C183.022 290.073 182.134 280.863 181.614 278.999L185.101 278.229L198.26 275.304C200.512 285.598 195.314 332.865 193.408 354.894Z" fill="#047F76"/>
<path d="M169.485 278.587C164.405 286.584 163.095 344.405 160.972 355.122L167.145 355.469C167.145 355.469 174.239 319.016 189.336 278.034L169.485 278.587Z" fill="#009790"/>
<path opacity="0.2" d="M191.935 278.034C188.957 286.129 186.282 294.05 183.921 301.538C183.022 290.073 182.134 280.863 181.614 278.999L185.101 278.229L191.935 278.034Z" fill="#5275A0"/>
<path d="M169.485 278.587C164.405 286.584 163.095 344.405 160.972 355.122L167.145 355.469C167.145 355.469 174.239 319.016 189.336 278.034L169.485 278.587Z" fill="#009790"/>
<path d="M173.362 214.037C173.362 214.037 169.409 229.099 179.286 229.088L178.701 232.935L186.195 233.758L184.571 228.395C184.571 228.395 186.054 218.924 186.152 217.212C186.336 214.015 177.39 208.391 173.362 214.037Z" fill="#FFB9A3"/>
<path d="M148.95 197.152L146.037 197.158L146.061 209.457L148.974 209.451L148.95 197.152Z" fill="#0C2340"/>
<path d="M155.839 197.133L139.139 197.165C137.969 197.165 137.016 196.222 137.016 195.052V194.619C137.016 193.448 137.959 192.495 139.128 192.495L155.828 192.462C156.998 192.462 157.951 193.405 157.951 194.575V195.009C157.961 196.179 157.008 197.133 155.839 197.133Z" fill="#0056EC"/>
<path d="M145.258 212.661C145.182 209.876 142.875 210.602 144.143 206.051C144.922 203.233 150.738 206.506 150.012 208.456C149.287 210.407 148.453 213.495 148.453 213.495L145.258 212.661Z" fill="#FFB9A3"/>
<path d="M179.351 232.057C164.589 233.032 163.615 238.017 157.008 237.237C147.229 236.088 148.94 217.916 150.153 211.404L144.316 211.415C144.316 211.415 133.789 252.797 167.037 245.147C165.759 252.396 174.033 264.24 166.008 278.609C178.625 282.044 190.408 282.878 200.491 278.544C198.725 276.16 204.108 252.115 193.57 234.81C191.513 231.418 180.434 231.981 179.351 232.057Z" fill="#0056EC"/>
<path d="M179.351 232.057C164.589 233.032 163.615 238.017 157.008 237.237C147.229 236.088 148.94 217.916 150.153 211.404L144.316 211.415C144.316 211.415 133.789 252.797 167.037 245.147C165.759 252.396 174.033 264.24 166.008 278.609C178.625 282.044 190.408 282.878 200.491 278.544C198.725 276.16 204.108 252.115 193.57 234.81C191.513 231.418 180.434 231.981 179.351 232.057Z" fill="#0056EC"/>
<path d="M177.315 216.93C178.279 217.179 179.394 217.363 179.914 218.176C180.25 218.707 180.228 219.368 180.195 219.986C180.369 219.336 181.094 218.87 181.777 218.956C182.47 219.032 183.055 219.65 183.065 220.322C183.076 220.636 182.968 220.939 182.849 221.232C182.556 221.969 182.188 222.662 181.755 223.323C182.957 223.768 183.975 227.3 184.571 228.395C186.596 227.885 191.112 226.141 191.502 218.956C191.686 215.608 190.668 211.599 187.04 209.377C184.473 207.806 180.228 207.784 177.293 208.532C174.91 209.139 171.12 211.523 172.885 214.297C173.773 215.695 175.723 216.518 177.315 216.93Z" fill="#EF832B"/>
<path d="M189.964 212.357C191.339 211.902 193.083 212.141 193.906 213.289C194.545 214.189 194.491 215.359 194.697 216.432C194.794 216.952 194.978 217.472 195.379 217.829C195.855 218.252 196.548 218.36 197.198 218.393C198.79 218.48 200.393 218.274 201.963 218.545C203.534 218.816 205.137 219.693 205.581 221.156C205.83 221.969 205.689 222.857 205.992 223.648C206.436 224.84 207.703 225.523 208.808 226.217C211.158 227.69 213.162 229.684 214.602 231.992C215.523 233.455 216.226 235.08 216.335 236.782C216.443 238.483 217.678 240.737 217.342 242.406C216.985 244.215 215.208 246.664 211.7 247.791C205.635 249.742 203.707 250.587 197.891 247.13C197.187 246.718 195.823 245.299 195.184 244.789C194.686 244.389 194.372 243.814 194.198 243.218C193.711 241.55 194.274 239.751 195.141 238.234C196.007 236.717 197.187 235.373 198.075 233.867C198.606 232.957 199.039 231.949 198.996 230.909C198.974 230.518 198.877 230.118 198.595 229.836C198.346 229.597 198 229.478 197.653 229.413C196.375 229.164 194.967 229.424 193.819 228.85C192.693 228.297 192.076 226.932 192.422 225.761C192.65 224.981 193.245 224.32 193.408 223.529C193.646 222.381 192.931 221.21 191.935 220.538C190.939 219.867 189.715 219.607 188.513 219.412C187.917 219.314 187.3 219.216 186.823 218.87C186.228 218.447 185.957 217.699 185.968 216.995C186.011 214.741 187.841 213.062 189.964 212.357Z" fill="#EF832B"/>
<path d="M188.87 218.414C196.17 219.997 186.953 226.921 190.82 230.237C191.924 231.179 193.202 230.887 194.491 231.06C199.451 231.743 196.733 235.113 196.397 237.757C196.343 238.158 197.003 238.234 197.09 237.854C197.512 236.034 199.18 233.802 198.325 231.862C197.567 230.15 195.682 230.356 194.134 230.302C192.195 230.247 190.061 230.302 190.787 226.455C190.95 225.599 191.632 224.732 191.968 223.919C192.347 222.987 192.607 222.066 192.401 221.048C192.043 219.325 190.614 218.317 188.968 218.046C188.729 217.992 188.621 218.36 188.87 218.414Z" fill="#EF832B"/>
<path d="M173.827 209.464C179.459 206.603 185.069 207.178 189.823 211.371C190.148 211.653 190.581 211.219 190.3 210.894C186.13 206.192 178.712 205.368 173.676 209.193C173.513 209.323 173.643 209.562 173.827 209.464Z" fill="#EF832B"/>
<path d="M362.983 227.138L360.546 232.057L366.503 234.495L367.142 228.839L362.983 227.138Z" fill="#FFB9A3"/>
<path d="M366.579 211.154C353.052 217.049 358.597 231.331 366.828 229.652C370.835 228.839 372.86 215.922 372.86 215.922L366.579 211.154Z" fill="#FFB9A3"/>
<path d="M371.073 209.128C370.629 208.305 370.207 207.416 369.471 206.831C368.734 206.246 367.575 206.051 366.893 206.69C365.983 207.535 366.514 209.117 367.434 209.952C366.644 210.049 365.702 209.496 365.117 210.049C364.673 210.461 364.824 211.198 365.084 211.75C365.68 213.04 366.655 214.167 367.857 214.925C367.175 215.315 366.373 216.074 366.785 216.746C366.904 216.93 367.088 217.06 367.207 217.244C367.467 217.678 367.218 218.241 366.947 218.675C366.525 219.379 366.059 220.062 365.572 220.723C366.037 220.083 367.175 220.343 367.51 221.059C367.846 221.774 367.554 222.651 367.023 223.237C366.731 223.562 366.362 223.833 365.929 223.93C365.561 224.017 363.915 229.088 365.193 230.085C366.774 231.309 372.146 230.247 372.925 228.86C373.705 229.706 374.842 230.345 375.968 230.117C377.095 229.89 377.95 228.503 377.344 227.528C378.557 227.972 380.041 227.582 380.874 226.585C381.708 225.588 381.827 224.06 381.167 222.944C381.827 222.749 381.968 221.85 381.795 221.178C381.448 219.823 380.344 218.675 378.99 218.295C379.672 218.306 380.214 217.613 380.246 216.93C380.279 216.247 379.921 215.597 379.488 215.066C378.221 213.495 376.716 213.083 374.842 212.845C372.958 212.617 371.918 210.688 371.073 209.128Z" fill="#4A49CA"/>
<path d="M358.402 354.027C358.402 354.027 350.486 357.831 349.424 359.012C349.424 359.012 364.998 359.716 366.222 358.98C367.445 358.243 363.731 354.017 363.731 354.017L358.402 354.027Z" fill="#0C2340"/>
<path d="M387.849 349.725C387.849 349.725 380.896 355.089 380.095 356.465C380.095 356.465 396.513 354.027 396.513 352.955C396.513 351.882 393.047 348.609 393.047 348.609L387.849 349.725Z" fill="#0C2340"/>
<path d="M366.048 280.592C365.756 282.206 354.915 325.009 385.932 350.679L394.91 348.62C394.91 348.62 384.459 338.814 379.531 321.151C374.874 304.453 378.567 302.816 381.362 293.627C384.459 283.452 382.152 276.062 382.152 276.062L366.048 280.592Z" fill="#D8742A"/>
<path d="M351.233 280.462C346.316 292.219 337.879 332.28 356.269 354.829L365.453 354.808C365.453 354.808 358.218 346.876 357.406 328.465C356.594 310.055 361.272 301.971 364.575 295.903C367.878 289.824 370.932 279.508 370.932 279.508L351.233 280.462Z" fill="#EF832B"/>
<path d="M344.756 207.589C342.32 216.193 341.518 232.1 353.734 238.505L361.911 236.511C361.911 236.511 347.161 228.774 350.323 209.226L344.756 207.589Z" fill="#0B43A4"/>
<path d="M322.219 203.19L328.566 202.41C328.566 202.41 327.797 229.088 358.597 231.342C382.109 233.054 383.95 277.2 383.95 277.2C376.369 282.304 363.655 283.853 347.356 282.683C347.356 282.683 348.395 251.193 345.807 242.568C345.807 242.557 320.216 234.506 322.219 203.19Z" fill="#0056EC"/>
<path d="M314.454 198.346C313.382 199.592 317.866 201.174 322.219 203.19L327.797 202.507C327.797 202.507 327.862 201.391 327.797 200.232C327.732 199.072 327.147 198.411 326.486 199.408C325.826 200.405 323.01 200.741 321.678 199.831C320.335 198.91 315.526 197.1 314.454 198.346Z" fill="#FFB9A3"/>
<path d="M344.756 207.589C342.71 205.585 343.262 205.704 343.262 205.704L349.489 207.113C349.489 207.113 350.854 204.068 352.023 203.992C353.182 203.905 351.146 206.083 351.612 206.896C352.078 207.709 350.334 209.236 350.334 209.236L344.756 207.589Z" fill="#FFB9A3"/>
<path d="M374.571 212.065C375.849 212.39 377.149 212.52 378.21 213.397C379.261 214.264 379.737 215.749 378.979 216.952C378.622 217.515 379.466 217.959 379.846 217.461C380.809 216.193 380.549 214.459 379.575 213.257C378.448 211.88 376.358 211.306 374.647 211.49C374.344 211.523 374.236 211.978 374.571 212.065Z" fill="#4A49CA"/>
<path d="M380.203 223.627C381.048 224.125 381.752 224.927 381.394 225.978C381.058 226.942 380.084 227.517 379.293 228.069C378.914 228.34 379.239 228.915 379.661 228.698C380.831 228.08 382.066 227.213 382.25 225.783C382.412 224.537 381.578 223.594 380.539 223.031C380.16 222.836 379.835 223.399 380.203 223.627Z" fill="#4A49CA"/>
<path d="M365.983 230.085C368.853 231.873 372.914 231.58 375.286 229.066C375.578 228.752 375.178 228.167 374.809 228.449C372.21 230.377 369.265 230.995 366.221 229.684C365.951 229.565 365.723 229.922 365.983 230.085Z" fill="#4A49CA"/>
<path d="M380.582 213.95C382.228 215.521 380.582 217.667 379.52 219.01C379.282 219.303 379.65 219.704 379.943 219.433C380.885 218.555 381.827 217.58 381.957 216.236C382.055 215.218 381.632 214.253 380.733 213.755C380.614 213.69 380.473 213.853 380.582 213.95Z" fill="#4A49CA"/>
<path d="M197.382 15.9975L194.848 9.78846L219.356 0.469482L197.382 15.9975Z" fill="#0B43A4"/>
<path d="M198.617 12.1616L219.356 0.469482L204.92 15.1415L198.617 12.1616Z" fill="#5193F4"/>
<path d="M189.238 7.25284L219.356 0.469482L194.848 9.78847L189.238 7.25284Z" fill="#5193F4"/>
<path d="M198.617 12.1616L197.382 15.9976L201.13 13.3536L198.617 12.1616Z" fill="#0056EC"/>
<path d="M194.502 15.1631C188.101 14.0795 179.416 20.5594 183.152 27.2994C184.419 29.5967 190.982 28.5998 190.495 26.0641C190.256 24.8505 188.773 24.3304 187.549 24.4712C180.401 25.2948 180.109 31.2871 180.434 32.815C182.069 40.7036 194.155 38.0379 198.216 36.9218" stroke="#C8DBFB" stroke-miterlimit="10" stroke-linecap="round" stroke-linejoin="round" stroke-dasharray="4 4"/>
</svg>
